<svg width="53" height="77" viewBox="0 0 53 77" fill="none" xmlns="http://www.w3.org/2000/svg">
<path fill-rule="evenodd" clip-rule="evenodd" d="M14.1809 16.1416L11.095 19.2407L15.8146 23.9687L20.5342 28.6968L10.2671 38.9678L0 49.2385L13.7747 63.0131L27.5493 76.7878L30.7263 73.6108L33.9032 70.4342L29.1813 65.7039L24.4594 60.9735L34.7259 50.7032L44.9926 40.4328L31.3005 26.7377C23.7701 19.2058 17.5317 13.043 17.4378 13.043C17.3435 13.043 15.8782 14.4376 14.1809 16.1416ZM29.3039 38.1099C31.471 40.2897 31.8059 40.77 31.5212 41.2891C30.9799 42.2761 18.9116 54.1283 18.4483 54.1283C17.8346 54.1283 13.2037 49.5472 13.2037 48.9404C13.2037 48.3825 25.8642 35.5421 26.4143 35.5421C26.5995 35.5421 27.8998 36.6977 29.3039 38.1099Z" fill="#1749D4"/>
<path d="M42.9333 14.6898V8.80008H45.6148C45.9606 8.80008 46.2745 8.87456 46.5565 9.02353C46.8385 9.16719 47.0593 9.37468 47.2189 9.64602C47.3838 9.91204 47.4663 10.2286 47.4663 10.5957C47.4663 10.9681 47.3838 11.2953 47.2189 11.5773C47.054 11.854 46.8279 12.0721 46.5406 12.2317C46.2586 12.386 45.9394 12.4632 45.5829 12.4632H43.3643V11.8008H45.4392C45.8063 11.8008 46.099 11.6944 46.3171 11.4816C46.5406 11.2687 46.6523 10.9735 46.6523 10.5957C46.6523 10.2126 46.5406 9.928 46.3171 9.74179C46.099 9.55558 45.809 9.46247 45.4472 9.46247H43.7074V14.6898H42.9333ZM46.2533 12.0003L47.7057 14.6898H46.8438L45.4153 12.0003H46.2533ZM45.0322 18.2012C44.149 18.2012 43.3217 18.0363 42.5503 17.7064C41.7788 17.3766 41.1004 16.919 40.5152 16.3338C39.93 15.7485 39.4724 15.0702 39.1425 14.2987C38.8127 13.5273 38.6477 12.6999 38.6477 11.8167C38.6477 10.9336 38.8127 10.1062 39.1425 9.33478C39.4724 8.56332 39.93 7.88497 40.5152 7.29972C41.1004 6.71448 41.7788 6.25693 42.5503 5.92706C43.3217 5.5972 44.149 5.43226 45.0322 5.43226C45.9154 5.43226 46.7427 5.5972 47.5142 5.92706C48.2857 6.25693 48.964 6.71448 49.5493 7.29972C50.1345 7.88497 50.592 8.56332 50.9219 9.33478C51.2518 10.1062 51.4167 10.9336 51.4167 11.8167C51.4167 12.6999 51.2518 13.5273 50.9219 14.2987C50.592 15.0702 50.1345 15.7485 49.5493 16.3338C48.964 16.919 48.2857 17.3766 47.5142 17.7064C46.7427 18.0363 45.9154 18.2012 45.0322 18.2012ZM45.0322 17.3473C46.0537 17.3473 46.9822 17.0999 47.8175 16.6051C48.6581 16.1103 49.3258 15.4453 49.8206 14.61C50.3154 13.7693 50.5628 12.8383 50.5628 11.8167C50.5628 10.7952 50.3127 9.86682 49.8126 9.03152C49.3178 8.19621 48.6528 7.53116 47.8175 7.03636C46.9822 6.53625 46.0537 6.28619 45.0322 6.28619C44.0107 6.28619 43.0796 6.53359 42.239 7.02838C41.4037 7.52318 40.7387 8.19089 40.2439 9.03152C39.7491 9.86682 39.5017 10.7952 39.5017 11.8167C39.5017 12.8329 39.7491 13.7614 40.2439 14.602C40.7387 15.4426 41.4037 16.1103 42.239 16.6051C43.0796 17.0999 44.0107 17.3473 45.0322 17.3473Z" fill="#1749D4"/>
</svg>
